#!OML:ASF E:\Style4\Style4.ASF
:FULLY-SPECIFIED
:DEGREES
1052
root 0.421607 17.6837 -1.42176 0.198987 -2.4238 2.79942
lowerback 6.37386 2.30134 -1.10665
upperback 1.6973 2.97854 -0.501425
thorax -1.84981 1.48785 -0.129716
lowerneck 0.840128 -4.03521 -6.19446
upperneck 4.8306 -5.53329 4.42812
head 1.71026 -2.80303 2.40961
rclavicle 3.40667e-014 -5.76476e-015
rhumerus 31.9838 2.56738 -42.8335
rradius 103.368
rwrist -0.73515
rhand -34.6833 31.329
rfingers 7.12502
rthumb -7.83913 1.49431
lclavicle 3.40667e-014 -5.76476e-015
lhumerus 34.548 -8.26774 42.9317
lradius 104.91
lwrist 7.58889
lhand -28.4913 24.8462
lfingers 7.12502
lthumb -1.86042 54.8178
rfemur -15.6382 3.14605 14.0176
rtibia 35.2323
rfoot -18.3443 -12.4396
rtoes -14.1824
lfemur -13.2302 0.118824 -23.1635
ltibia 32.4909
lfoot -19.9855 8.27186
ltoes -12.9023
1053
root 0.422225 17.6976 -1.40325 0.165432 -2.45072 2.71276
lowerback 6.24579 2.32991 -0.977628
upperback 1.60556 3.02542 -0.538753
thorax -1.86466 1.51121 -0.240447
lowerneck 0.767698 -3.98204 -6.10683
upperneck 5.15163 -5.4685 4.479
head 1.82255 -2.76913 2.40922
rclavicle -2.74571e-014 5.96354e-015
rhumerus 32.569 1.62403 -42.4904
rradius 102.818
rwrist -0.758276
rhand -34.7625 31.5361
rfingers 7.12502
rthumb -7.91555 1.70431
lclavicle -2.74571e-014 5.96354e-015
lhumerus 35.1957 -7.46228 42.5608
lradius 104.638
lwrist 7.92257
lhand -28.6842 24.7432
lfingers 7.12502
lthumb -2.04671 54.7132
rfemur -15.3095 3.23825 14.1255
rtibia 34.8455
rfoot -18.2001 -12.5473
rtoes -14.2492
lfemur -12.9337 0.126256 -23.0672
ltibia 32.1595
lfoot -19.8954 8.20792
ltoes -12.3543
1054
root 0.421723 17.7092 -1.38753 0.15476 -2.46948 2.68336
lowerback 6.08684 2.36209 -0.939191
upperback 1.52535 3.07179 -0.574434
thorax -1.85496 1.53447 -0.297088
lowerneck 0.649143 -3.92673 -6.07675
upperneck 5.55024 -5.40289 4.58142
head 1.97303 -2.73455 2.43592
rclavicle 1.32689e-014 -2.5842e-015
rhumerus 33.1926 0.793217 -42.172
rradius 102.079
rwrist -0.582045
rhand -35.1985 31.9485
rfingers 7.12502
rthumb -8.33637 2.13298
lclavicle 1.32689e-014 -2.5842e-015
lhumerus 35.8083 -6.67667 42.2842
lradius 104.241
lwrist 8.28418
lhand -28.8208 24.4456
lfingers 7.12502
lthumb -2.17866 54.4142
rfemur -15.0393 3.26739 14.1624
rtibia 34.4727
rfoot -18.107 -12.5277
rtoes -14.0586
lfemur -12.6741 0.0717946 -23.0231
ltibia 31.8202
lfoot -19.9485 8.15806
ltoes -11.8252
1055
root 0.421792 17.7204 -1.37485 0.136954 -2.50638 2.653
lowerback 5.97961 2.37048 -0.921271
upperback 1.44679 3.08465 -0.596443
thorax -1.87396 1.54105 -0.327928
lowerneck 0.471363 -3.83571 -6.00296
upperneck 5.95541 -5.28354 4.59995
head 2.12903 -2.67273 2.42739
rclavicle 3.94339e-014 -1.66979e-014
rhumerus 33.8616 0.0711738 -41.9273
rradius 101.349
rwrist -0.510043
rhand -35.4844 32.3129
rfingers 7.12502
rthumb -8.61227 2.50852
lclavicle 3.94339e-014 -1.66979e-014
lhumerus 36.2895 -5.81007 42.0974
lradius 103.773
lwrist 8.70069
lhand -28.7107 24.0489
lfingers 7.12502
lthumb -2.07233 54.0186
rfemur -14.793 3.23655 14.1926
rtibia 34.1238
rfoot -18.0387 -12.4264
rtoes -14.086
lfemur -12.4124 0.0128576 -22.9907
ltibia 31.4656
lfoot -19.9065 8.18165
ltoes -11.3426
